{
	"asset":{
		"generator":"Khronos glTF Blender I/O v4.0.44",
		"version":"2.0"
	},
	"scene":0,
	"scenes":[
		{
			"name":"Scene",
			"nodes":[
				0,
				1,
				2,
				3,
				4,
				5,
				6,
				7,
				8,
				9,
				10,
				11,
				12,
				13,
				14,
				15,
				16,
				17
			]
		}
	],
	"nodes":[
		{
			"mesh":0,
			"name":"Plane",
			"scale":[
				9.135457038879395,
				12.602893829345703,
				12.602893829345703
			],
			"translation":[
				0.5672042369842529,
				-3.0040714740753174,
				-0.03921025991439819
			]
		},
		{
			"mesh":1,
			"name":"Cube",
			"scale":[
				0.12000000476837158,
				4.019999980926514,
				0.10000002384185791
			],
			"translation":[
				0.21701979637145996,
				1.007649540901184,
				1.7657657861709595
			]
		},
		{
			"mesh":2,
			"name":"Cube.001",
			"scale":[
				0.12000000476837158,
				4.019999980926514,
				0.10000002384185791
			],
			"translation":[
				1.5691207647323608,
				1.007649540901184,
				1.7657657861709595
			]
		},
		{
			"mesh":3,
			"name":"Cube.002",
			"scale":[
				0.12000000476837158,
				4.019999980926514,
				0.10000002384185791
			],
			"translation":[
				2.7603302001953125,
				1.007649540901184,
				1.7657657861709595
			]
		},
		{
			"mesh":4,
			"name":"Cube.003",
			"scale":[
				0.12000000476837158,
				4.019999980926514,
				0.10000002384185791
			],
			"translation":[
				-1.188298225402832,
				1.007649540901184,
				1.7657657861709595
			]
		},
		{
			"mesh":5,
			"name":"Cube.004",
			"scale":[
				0.12000000476837158,
				4.019999980926514,
				0.10000002384185791
			],
			"translation":[
				-2.188298225402832,
				1.007649540901184,
				1.7657657861709595
			]
		},
		{
			"mesh":6,
			"name":"Cube.005",
			"scale":[
				0.12000000476837158,
				4.019999980926514,
				0.10000002384185791
			],
			"translation":[
				-3.6926209926605225,
				1.007649540901184,
				1.7657657861709595
			]
		},
		{
			"mesh":7,
			"name":"Cube.006",
			"scale":[
				0.12000000476837158,
				4.019999980926514,
				0.10000002384185791
			],
			"translation":[
				-5.9692535400390625,
				1.007649540901184,
				1.7657657861709595
			]
		},
		{
			"mesh":8,
			"name":"Cube.007",
			"scale":[
				0.12000000476837158,
				4.019999980926514,
				0.10000002384185791
			],
			"translation":[
				4.0307464599609375,
				1.007649540901184,
				1.7657657861709595
			]
		},
		{
			"mesh":9,
			"name":"Cube.008",
			"scale":[
				0.12000000476837158,
				4.019999980926514,
				0.10000002384185791
			],
			"translation":[
				6.0307464599609375,
				1.007649540901184,
				1.7657657861709595
			]
		},
		{
			"mesh":10,
			"name":"Cube.009",
			"scale":[
				0.12000000476837158,
				4.019999980926514,
				0.10000002384185791
			],
			"translation":[
				9.030746459960938,
				1.007649540901184,
				1.7657657861709595
			]
		},
		{
			"mesh":11,
			"name":"Cube.010",
			"scale":[
				0.12000000476837158,
				4.019999980926514,
				0.10000002384185791
			],
			"translation":[
				7.245384216308594,
				1.007649540901184,
				1.7657657861709595
			]
		},
		{
			"mesh":12,
			"name":"Cube.011",
			"scale":[
				0.12000000476837158,
				4.019999980926514,
				0.10000002384185791
			],
			"translation":[
				5.138181686401367,
				1.007649540901184,
				1.7657657861709595
			]
		},
		{
			"mesh":13,
			"name":"Cube.012",
			"scale":[
				0.12000000476837158,
				4.019999980926514,
				0.10000002384185791
			],
			"translation":[
				8.23248291015625,
				1.007649540901184,
				1.7657657861709595
			]
		},
		{
			"mesh":14,
			"name":"Cube.013",
			"scale":[
				0.12000000476837158,
				4.019999980926514,
				0.10000002384185791
			],
			"translation":[
				-4.868137359619141,
				1.007649540901184,
				1.7657657861709595
			]
		},
		{
			"mesh":15,
			"name":"Cube.014",
			"scale":[
				0.12000000476837158,
				4.019999980926514,
				0.10000002384185791
			],
			"translation":[
				-6.994040012359619,
				1.007649540901184,
				1.7657657861709595
			]
		},
		{
			"mesh":16,
			"name":"Cube.015",
			"scale":[
				0.12000000476837158,
				4.019999980926514,
				0.10000002384185791
			],
			"translation":[
				-7.8373613357543945,
				1.007649540901184,
				1.7657657861709595
			]
		},
		{
			"mesh":17,
			"name":"Suzanne",
			"rotation":[
				-0.03500240296125412,
				-0.9535718560218811,
				-0.2697482705116272,
				0.12927253544330597
			],
			"scale":[
				1.9490857124328613,
				1.9490858316421509,
				1.9490858316421509
			],
			"translation":[
				0.155596524477005,
				1.0896729230880737,
				-4.05181360244751
			]
		}
	],
	"meshes":[
		{
			"name":"Plane",
			"primitives":[
				{
					"attributes":{
						"POSITION":0,
						"NORMAL":1,
						"TEXCOORD_0":2
					},
					"indices":3
				}
			]
		},
		{
			"name":"Cube.001",
			"primitives":[
				{
					"attributes":{
						"POSITION":4,
						"NORMAL":5,
						"TEXCOORD_0":6
					},
					"indices":7
				}
			]
		},
		{
			"name":"Cube.002",
			"primitives":[
				{
					"attributes":{
						"POSITION":8,
						"NORMAL":9,
						"TEXCOORD_0":10
					},
					"indices":7
				}
			]
		},
		{
			"name":"Cube.003",
			"primitives":[
				{
					"attributes":{
						"POSITION":11,
						"NORMAL":12,
						"TEXCOORD_0":13
					},
					"indices":7
				}
			]
		},
		{
			"name":"Cube.004",
			"primitives":[
				{
					"attributes":{
						"POSITION":14,
						"NORMAL":15,
						"TEXCOORD_0":16
					},
					"indices":7
				}
			]
		},
		{
			"name":"Cube.005",
			"primitives":[
				{
					"attributes":{
						"POSITION":17,
						"NORMAL":18,
						"TEXCOORD_0":19
					},
					"indices":7
				}
			]
		},
		{
			"name":"Cube.006",
			"primitives":[
				{
					"attributes":{
						"POSITION":20,
						"NORMAL":21,
						"TEXCOORD_0":22
					},
					"indices":7
				}
			]
		},
		{
			"name":"Cube.007",
			"primitives":[
				{
					"attributes":{
						"POSITION":23,
						"NORMAL":24,
						"TEXCOORD_0":25
					},
					"indices":7
				}
			]
		},
		{
			"name":"Cube.008",
			"primitives":[
				{
					"attributes":{
						"POSITION":26,
						"NORMAL":27,
						"TEXCOORD_0":28
					},
					"indices":7
				}
			]
		},
		{
			"name":"Cube.009",
			"primitives":[
				{
					"attributes":{
						"POSITION":29,
						"NORMAL":30,
						"TEXCOORD_0":31
					},
					"indices":7
				}
			]
		},
		{
			"name":"Cube.010",
			"primitives":[
				{
					"attributes":{
						"POSITION":32,
						"NORMAL":33,
						"TEXCOORD_0":34
					},
					"indices":7
				}
			]
		},
		{
			"name":"Cube.011",
			"primitives":[
				{
					"attributes":{
						"POSITION":35,
						"NORMAL":36,
						"TEXCOORD_0":37
					},
					"indices":7
				}
			]
		},
		{
			"name":"Cube.012",
			"primitives":[
				{
					"attributes":{
						"POSITION":38,
						"NORMAL":39,
						"TEXCOORD_0":40
					},
					"indices":7
				}
			]
		},
		{
			"name":"Cube.013",
			"primitives":[
				{
					"attributes":{
						"POSITION":41,
						"NORMAL":42,
						"TEXCOORD_0":43
					},
					"indices":7
				}
			]
		},
		{
			"name":"Cube.014",
			"primitives":[
				{
					"attributes":{
						"POSITION":44,
						"NORMAL":45,
						"TEXCOORD_0":46
					},
					"indices":7
				}
			]
		},
		{
			"name":"Cube.015",
			"primitives":[
				{
					"attributes":{
						"POSITION":47,
						"NORMAL":48,
						"TEXCOORD_0":49
					},
					"indices":7
				}
			]
		},
		{
			"name":"Cube.016",
			"primitives":[
				{
					"attributes":{
						"POSITION":50,
						"NORMAL":51,
						"TEXCOORD_0":52
					},
					"indices":7
				}
			]
		},
		{
			"name":"Suzanne.002",
			"primitives":[
				{
					"attributes":{
						"POSITION":53,
						"NORMAL":54,
						"TEXCOORD_0":55
					},
					"indices":56
				}
			]
		}
	],
	"accessors":[
		{
			"bufferView":0,
			"componentType":5126,
			"count":4,
			"max":[
				1,
				0,
				1
			],
			"min":[
				-1,
				0,
				-1
			],
			"type":"VEC3"
		},
		{
			"bufferView":1,
			"componentType":5126,
			"count":4,
			"type":"VEC3"
		},
		{
			"bufferView":2,
			"componentType":5126,
			"count":4,
			"type":"VEC2"
		},
		{
			"bufferView":3,
			"componentType":5123,
			"count":6,
			"type":"SCALAR"
		},
		{
			"bufferView":4,
			"componentType":5126,
			"count":24,
			"max":[
				1,
				1,
				1
			],
			"min":[
				-1,
				-1,
				-1
			],
			"type":"VEC3"
		},
		{
			"bufferView":5,
			"componentType":5126,
			"count":24,
			"type":"VEC3"
		},
		{
			"bufferView":6,
			"componentType":5126,
			"count":24,
			"type":"VEC2"
		},
		{
			"bufferView":7,
			"componentType":5123,
			"count":36,
			"type":"SCALAR"
		},
		{
			"bufferView":8,
			"componentType":5126,
			"count":24,
			"max":[
				1,
				1,
				1
			],
			"min":[
				-1,
				-1,
				-1
			],
			"type":"VEC3"
		},
		{
			"bufferView":9,
			"componentType":5126,
			"count":24,
			"type":"VEC3"
		},
		{
			"bufferView":10,
			"componentType":5126,
			"count":24,
			"type":"VEC2"
		},
		{
			"bufferView":11,
			"componentType":5126,
			"count":24,
			"max":[
				1,
				1,
				1
			],
			"min":[
				-1,
				-1,
				-1
			],
			"type":"VEC3"
		},
		{
			"bufferView":12,
			"componentType":5126,
			"count":24,
			"type":"VEC3"
		},
		{
			"bufferView":13,
			"componentType":5126,
			"count":24,
			"type":"VEC2"
		},
		{
			"bufferView":14,
			"componentType":5126,
			"count":24,
			"max":[
				1,
				1,
				1
			],
			"min":[
				-1,
				-1,
				-1
			],
			"type":"VEC3"
		},
		{
			"bufferView":15,
			"componentType":5126,
			"count":24,
			"type":"VEC3"
		},
		{
			"bufferView":16,
			"componentType":5126,
			"count":24,
			"type":"VEC2"
		},
		{
			"bufferView":17,
			"componentType":5126,
			"count":24,
			"max":[
				1,
				1,
				1
			],
			"min":[
				-1,
				-1,
				-1
			],
			"type":"VEC3"
		},
		{
			"bufferView":18,
			"componentType":5126,
			"count":24,
			"type":"VEC3"
		},
		{
			"bufferView":19,
			"componentType":5126,
			"count":24,
			"type":"VEC2"
		},
		{
			"bufferView":20,
			"componentType":5126,
			"count":24,
			"max":[
				1,
				1,
				1
			],
			"min":[
				-1,
				-1,
				-1
			],
			"type":"VEC3"
		},
		{
			"bufferView":21,
			"componentType":5126,
			"count":24,
			"type":"VEC3"
		},
		{
			"bufferView":22,
			"componentType":5126,
			"count":24,
			"type":"VEC2"
		},
		{
			"bufferView":23,
			"componentType":5126,
			"count":24,
			"max":[
				1,
				1,
				1
			],
			"min":[
				-1,
				-1,
				-1
			],
			"type":"VEC3"
		},
		{
			"bufferView":24,
			"componentType":5126,
			"count":24,
			"type":"VEC3"
		},
		{
			"bufferView":25,
			"componentType":5126,
			"count":24,
			"type":"VEC2"
		},
		{
			"bufferView":26,
			"componentType":5126,
			"count":24,
			"max":[
				1,
				1,
				1
			],
			"min":[
				-1,
				-1,
				-1
			],
			"type":"VEC3"
		},
		{
			"bufferView":27,
			"componentType":5126,
			"count":24,
			"type":"VEC3"
		},
		{
			"bufferView":28,
			"componentType":5126,
			"count":24,
			"type":"VEC2"
		},
		{
			"bufferView":29,
			"componentType":5126,
			"count":24,
			"max":[
				1,
				1,
				1
			],
			"min":[
				-1,
				-1,
				-1
			],
			"type":"VEC3"
		},
		{
			"bufferView":30,
			"componentType":5126,
			"count":24,
			"type":"VEC3"
		},
		{
			"bufferView":31,
			"componentType":5126,
			"count":24,
			"type":"VEC2"
		},
		{
			"bufferView":32,
			"componentType":5126,
			"count":24,
			"max":[
				1,
				1,
				1
			],
			"min":[
				-1,
				-1,
				-1
			],
			"type":"VEC3"
		},
		{
			"bufferView":33,
			"componentType":5126,
			"count":24,
			"type":"VEC3"
		},
		{
			"bufferView":34,
			"componentType":5126,
			"count":24,
			"type":"VEC2"
		},
		{
			"bufferView":35,
			"componentType":5126,
			"count":24,
			"max":[
				1,
				1,
				1
			],
			"min":[
				-1,
				-1,
				-1
			],
			"type":"VEC3"
		},
		{
			"bufferView":36,
			"componentType":5126,
			"count":24,
			"type":"VEC3"
		},
		{
			"bufferView":37,
			"componentType":5126,
			"count":24,
			"type":"VEC2"
		},
		{
			"bufferView":38,
			"componentType":5126,
			"count":24,
			"max":[
				1,
				1,
				1
			],
			"min":[
				-1,
				-1,
				-1
			],
			"type":"VEC3"
		},
		{
			"bufferView":39,
			"componentType":5126,
			"count":24,
			"type":"VEC3"
		},
		{
			"bufferView":40,
			"componentType":5126,
			"count":24,
			"type":"VEC2"
		},
		{
			"bufferView":41,
			"componentType":5126,
			"count":24,
			"max":[
				1,
				1,
				1
			],
			"min":[
				-1,
				-1,
				-1
			],
			"type":"VEC3"
		},
		{
			"bufferView":42,
			"componentType":5126,
			"count":24,
			"type":"VEC3"
		},
		{
			"bufferView":43,
			"componentType":5126,
			"count":24,
			"type":"VEC2"
		},
		{
			"bufferView":44,
			"componentType":5126,
			"count":24,
			"max":[
				1,
				1,
				1
			],
			"min":[
				-1,
				-1,
				-1
			],
			"type":"VEC3"
		},
		{
			"bufferView":45,
			"componentType":5126,
			"count":24,
			"type":"VEC3"
		},
		{
			"bufferView":46,
			"componentType":5126,
			"count":24,
			"type":"VEC2"
		},
		{
			"bufferView":47,
			"componentType":5126,
			"count":24,
			"max":[
				1,
				1,
				1
			],
			"min":[
				-1,
				-1,
				-1
			],
			"type":"VEC3"
		},
		{
			"bufferView":48,
			"componentType":5126,
			"count":24,
			"type":"VEC3"
		},
		{
			"bufferView":49,
			"componentType":5126,
			"count":24,
			"type":"VEC2"
		},
		{
			"bufferView":50,
			"componentType":5126,
			"count":24,
			"max":[
				1,
				1,
				1
			],
			"min":[
				-1,
				-1,
				-1
			],
			"type":"VEC3"
		},
		{
			"bufferView":51,
			"componentType":5126,
			"count":24,
			"type":"VEC3"
		},
		{
			"bufferView":52,
			"componentType":5126,
			"count":24,
			"type":"VEC2"
		},
		{
			"bufferView":53,
			"componentType":5126,
			"count":1966,
			"max":[
				1.3671875,
				0.984375,
				0.8515625
			],
			"min":[
				-1.3671875,
				-0.984375,
				-0.8515625
			],
			"type":"VEC3"
		},
		{
			"bufferView":54,
			"componentType":5126,
			"count":1966,
			"type":"VEC3"
		},
		{
			"bufferView":55,
			"componentType":5126,
			"count":1966,
			"type":"VEC2"
		},
		{
			"bufferView":56,
			"componentType":5123,
			"count":2904,
			"type":"SCALAR"
		}
	],
	"bufferViews":[
		{
			"buffer":0,
			"byteLength":48,
			"byteOffset":0,
			"target":34962
		},
		{
			"buffer":0,
			"byteLength":48,
			"byteOffset":48,
			"target":34962
		},
		{
			"buffer":0,
			"byteLength":32,
			"byteOffset":96,
			"target":34962
		},
		{
			"buffer":0,
			"byteLength":12,
			"byteOffset":128,
			"target":34963
		},
		{
			"buffer":0,
			"byteLength":288,
			"byteOffset":140,
			"target":34962
		},
		{
			"buffer":0,
			"byteLength":288,
			"byteOffset":428,
			"target":34962
		},
		{
			"buffer":0,
			"byteLength":192,
			"byteOffset":716,
			"target":34962
		},
		{
			"buffer":0,
			"byteLength":72,
			"byteOffset":908,
			"target":34963
		},
		{
			"buffer":0,
			"byteLength":288,
			"byteOffset":980,
			"target":34962
		},
		{
			"buffer":0,
			"byteLength":288,
			"byteOffset":1268,
			"target":34962
		},
		{
			"buffer":0,
			"byteLength":192,
			"byteOffset":1556,
			"target":34962
		},
		{
			"buffer":0,
			"byteLength":288,
			"byteOffset":1748,
			"target":34962
		},
		{
			"buffer":0,
			"byteLength":288,
			"byteOffset":2036,
			"target":34962
		},
		{
			"buffer":0,
			"byteLength":192,
			"byteOffset":2324,
			"target":34962
		},
		{
			"buffer":0,
			"byteLength":288,
			"byteOffset":2516,
			"target":34962
		},
		{
			"buffer":0,
			"byteLength":288,
			"byteOffset":2804,
			"target":34962
		},
		{
			"buffer":0,
			"byteLength":192,
			"byteOffset":3092,
			"target":34962
		},
		{
			"buffer":0,
			"byteLength":288,
			"byteOffset":3284,
			"target":34962
		},
		{
			"buffer":0,
			"byteLength":288,
			"byteOffset":3572,
			"target":34962
		},
		{
			"buffer":0,
			"byteLength":192,
			"byteOffset":3860,
			"target":34962
		},
		{
			"buffer":0,
			"byteLength":288,
			"byteOffset":4052,
			"target":34962
		},
		{
			"buffer":0,
			"byteLength":288,
			"byteOffset":4340,
			"target":34962
		},
		{
			"buffer":0,
			"byteLength":192,
			"byteOffset":4628,
			"target":34962
		},
		{
			"buffer":0,
			"byteLength":288,
			"byteOffset":4820,
			"target":34962
		},
		{
			"buffer":0,
			"byteLength":288,
			"byteOffset":5108,
			"target":34962
		},
		{
			"buffer":0,
			"byteLength":192,
			"byteOffset":5396,
			"target":34962
		},
		{
			"buffer":0,
			"byteLength":288,
			"byteOffset":5588,
			"target":34962
		},
		{
			"buffer":0,
			"byteLength":288,
			"byteOffset":5876,
			"target":34962
		},
		{
			"buffer":0,
			"byteLength":192,
			"byteOffset":6164,
			"target":34962
		},
		{
			"buffer":0,
			"byteLength":288,
			"byteOffset":6356,
			"target":34962
		},
		{
			"buffer":0,
			"byteLength":288,
			"byteOffset":6644,
			"target":34962
		},
		{
			"buffer":0,
			"byteLength":192,
			"byteOffset":6932,
			"target":34962
		},
		{
			"buffer":0,
			"byteLength":288,
			"byteOffset":7124,
			"target":34962
		},
		{
			"buffer":0,
			"byteLength":288,
			"byteOffset":7412,
			"target":34962
		},
		{
			"buffer":0,
			"byteLength":192,
			"byteOffset":7700,
			"target":34962
		},
		{
			"buffer":0,
			"byteLength":288,
			"byteOffset":7892,
			"target":34962
		},
		{
			"buffer":0,
			"byteLength":288,
			"byteOffset":8180,
			"target":34962
		},
		{
			"buffer":0,
			"byteLength":192,
			"byteOffset":8468,
			"target":34962
		},
		{
			"buffer":0,
			"byteLength":288,
			"byteOffset":8660,
			"target":34962
		},
		{
			"buffer":0,
			"byteLength":288,
			"byteOffset":8948,
			"target":34962
		},
		{
			"buffer":0,
			"byteLength":192,
			"byteOffset":9236,
			"target":34962
		},
		{
			"buffer":0,
			"byteLength":288,
			"byteOffset":9428,
			"target":34962
		},
		{
			"buffer":0,
			"byteLength":288,
			"byteOffset":9716,
			"target":34962
		},
		{
			"buffer":0,
			"byteLength":192,
			"byteOffset":10004,
			"target":34962
		},
		{
			"buffer":0,
			"byteLength":288,
			"byteOffset":10196,
			"target":34962
		},
		{
			"buffer":0,
			"byteLength":288,
			"byteOffset":10484,
			"target":34962
		},
		{
			"buffer":0,
			"byteLength":192,
			"byteOffset":10772,
			"target":34962
		},
		{
			"buffer":0,
			"byteLength":288,
			"byteOffset":10964,
			"target":34962
		},
		{
			"buffer":0,
			"byteLength":288,
			"byteOffset":11252,
			"target":34962
		},
		{
			"buffer":0,
			"byteLength":192,
			"byteOffset":11540,
			"target":34962
		},
		{
			"buffer":0,
			"byteLength":288,
			"byteOffset":11732,
			"target":34962
		},
		{
			"buffer":0,
			"byteLength":288,
			"byteOffset":12020,
			"target":34962
		},
		{
			"buffer":0,
			"byteLength":192,
			"byteOffset":12308,
			"target":34962
		},
		{
			"buffer":0,
			"byteLength":23592,
			"byteOffset":12500,
			"target":34962
		},
		{
			"buffer":0,
			"byteLength":23592,
			"byteOffset":36092,
			"target":34962
		},
		{
			"buffer":0,
			"byteLength":15728,
			"byteOffset":59684,
			"target":34962
		},
		{
			"buffer":0,
			"byteLength":5808,
			"byteOffset":75412,
			"target":34963
		}
	],
	"buffers":[
		{
			"byteLength":81220,
			"uri":"untitled.bin"
		}
	]
}
